<?xml version="1.0" encoding="utf-8"?>
<!-- Generator: Adobe Illustrator 23.0.6, SVG Export Plug-In . SVG Version: 6.00 Build 0)  -->
<svg version="1.1" id="Capa_1" xmlns="http://www.w3.org/2000/svg" xmlns:xlink="http://www.w3.org/1999/xlink" x="0px" y="0px"
	 viewBox="0 0 101.8 37.7" style="enable-background:new 0 0 101.8 37.7;" xml:space="preserve">
<style type="text/css">
	.st0{fill:none;}
	.st1{enable-background:new    ;}
	.st2{fill:#FFA3B5;}
</style>
<rect y="6.7" class="st0" width="101.8" height="31"/>
<g class="st1">
	<path class="st2" d="M2.4,12.9c0.9-1.6,2.2-2.9,3.8-3.8s3.4-1.4,5.4-1.4c2.3,0,4.4,0.6,6.1,1.8s3,2.9,3.7,5h-4.8
		c-0.5-1-1.2-1.8-2-2.3c-0.9-0.5-1.9-0.8-3-0.8c-1.2,0-2.3,0.3-3.3,0.9c-0.9,0.6-1.7,1.4-2.2,2.4c-0.5,1-0.8,2.3-0.8,3.7
		c0,1.4,0.3,2.6,0.8,3.6c0.5,1.1,1.3,1.9,2.2,2.4c0.9,0.6,2,0.9,3.3,0.9c1.1,0,2.1-0.3,3-0.8c0.9-0.5,1.5-1.3,2-2.3h4.8
		c-0.7,2.1-1.9,3.8-3.7,5c-1.8,1.2-3.8,1.8-6.2,1.8c-2,0-3.8-0.5-5.4-1.4s-2.9-2.2-3.8-3.8C1.5,22.3,1,20.5,1,18.4
		C1,16.4,1.5,14.5,2.4,12.9z"/>
	<path class="st2" d="M25,16.1c0.7-1.3,1.6-2.3,2.7-3c1.1-0.7,2.4-1,3.9-1c1.2,0,2.3,0.3,3.3,0.8s1.7,1.1,2.2,1.9v-2.4h4.2v16.6
		h-4.2v-2.4c-0.5,0.8-1.3,1.4-2.2,1.9c-1,0.5-2,0.8-3.3,0.8c-1.4,0-2.7-0.4-3.8-1.1c-1.2-0.7-2.1-1.7-2.7-3c-0.7-1.3-1-2.8-1-4.5
		C24,18.9,24.4,17.4,25,16.1z M36.5,18c-0.4-0.7-0.9-1.3-1.6-1.7c-0.7-0.4-1.4-0.6-2.2-0.6c-0.8,0-1.5,0.2-2.2,0.6s-1.2,0.9-1.6,1.7
		c-0.4,0.7-0.6,1.6-0.6,2.6s0.2,1.9,0.6,2.6c0.4,0.8,0.9,1.3,1.6,1.7c0.7,0.4,1.4,0.6,2.1,0.6c0.8,0,1.5-0.2,2.2-0.6
		c0.7-0.4,1.2-1,1.6-1.7c0.4-0.7,0.6-1.6,0.6-2.6C37.1,19.6,36.9,18.7,36.5,18z"/>
	<path class="st2" d="M50.3,15.8v8c0,0.6,0.1,1,0.4,1.2c0.3,0.3,0.7,0.4,1.4,0.4h2v3.5h-2.6c-3.5,0-5.3-1.7-5.3-5.2v-8h-2v-3.5h2
		V8.2h4.2v4.1h3.7v3.5H50.3z"/>
	<path class="st2" d="M57,16.1c0.7-1.3,1.6-2.3,2.7-3s2.4-1,3.9-1c1.2,0,2.3,0.3,3.3,0.8c0.9,0.5,1.7,1.1,2.2,1.9v-2.4h4.2v16.6
		h-4.2v-2.4c-0.5,0.8-1.3,1.4-2.2,1.9c-0.9,0.5-2,0.8-3.3,0.8c-1.4,0-2.7-0.4-3.8-1.1c-1.2-0.7-2.1-1.7-2.7-3c-0.7-1.3-1-2.8-1-4.5
		C56,18.9,56.3,17.4,57,16.1z M68.5,18c-0.4-0.7-0.9-1.3-1.6-1.7c-0.7-0.4-1.4-0.6-2.2-0.6c-0.8,0-1.5,0.2-2.2,0.6s-1.2,0.9-1.6,1.7
		s-0.6,1.6-0.6,2.6s0.2,1.9,0.6,2.6s0.9,1.3,1.6,1.7c0.7,0.4,1.4,0.6,2.1,0.6c0.8,0,1.5-0.2,2.2-0.6s1.2-1,1.6-1.7
		c0.4-0.7,0.6-1.6,0.6-2.6C69.1,19.6,68.9,18.7,68.5,18z"/>
	<path class="st2" d="M83.7,12.8c0.9-0.5,1.9-0.8,3-0.8v4.4h-1.1c-1.3,0-2.3,0.3-3,0.9c-0.7,0.6-1,1.7-1,3.2v8.3h-4.2V12.3h4.2v2.6
		C82.2,14,82.9,13.3,83.7,12.8z"/>
	<path class="st2" d="M89.8,9.6c-0.5-0.5-0.7-1.1-0.7-1.8s0.2-1.3,0.7-1.8c0.5-0.5,1.1-0.7,1.8-0.7c0.7,0,1.4,0.2,1.8,0.7
		c0.5,0.5,0.7,1.1,0.7,1.8S94,9.1,93.5,9.6s-1.1,0.7-1.8,0.7C90.9,10.3,90.3,10.1,89.8,9.6z M93.7,12.3v16.6h-4.2V12.3H93.7z"/>
</g>
</svg>
